<?xml version="1.0" encoding="UTF-8" standalone="no"?>
<svg
   xmlns:dc="http://purl.org/dc/elements/1.1/"
   xmlns:cc="http://creativecommons.org/ns#"
   xmlns:rdf="http://www.w3.org/1999/02/22-rdf-syntax-ns#"
   xmlns:svg="http://www.w3.org/2000/svg"
   xmlns="http://www.w3.org/2000/svg"
   xmlns:sodipodi="http://sodipodi.sourceforge.net/DTD/sodipodi-0.dtd"
   xmlns:inkscape="http://www.inkscape.org/namespaces/inkscape"
   width="40mm"
   height="40mm"
   viewBox="0 0 40 40"
   version="1.1"
   id="svg8"
   sodipodi:docname="tree.svg"
   inkscape:version="1.0.2 (e86c8708, 2021-01-15)">
  <defs
     id="defs2" />
  <sodipodi:namedview
     id="base"
     pagecolor="#ffffff"
     bordercolor="#666666"
     borderopacity="1.0"
     inkscape:pageopacity="0.0"
     inkscape:pageshadow="2"
     inkscape:zoom="1.24"
     inkscape:cx="66.051849"
     inkscape:cy="167.60983"
     inkscape:document-units="mm"
     inkscape:current-layer="layer1"
     inkscape:document-rotation="0"
     showgrid="false"
     inkscape:window-width="1804"
     inkscape:window-height="955"
     inkscape:window-x="0"
     inkscape:window-y="23"
     inkscape:window-maximized="0" />
  <metadata
     id="metadata5">
    <rdf:RDF>
      <cc:Work
         rdf:about="">
        <dc:format>image/svg+xml</dc:format>
        <dc:type
           rdf:resource="http://purl.org/dc/dcmitype/StillImage" />
        <dc:title />
      </cc:Work>
    </rdf:RDF>
  </metadata>
  <g
     inkscape:label="Layer 1"
     inkscape:groupmode="layer"
     id="layer1"
     transform="translate(-20,-20)">
    <circle
       style="fill:#ffffff;fill-opacity:1;stroke-width:0.264583"
       id="path839"
       cx="40"
       cy="40"
       r="20" />
    <circle
       style="fill:#ffddc4;fill-opacity:1;stroke-width:0.238126"
       id="path839-9"
       cx="40"
       cy="40"
       r="18" />
    <path
       style="fill:#ffffff;fill-opacity:1;fill-rule:nonzero;stroke:none;stroke-width:0.0580898;stroke-miterlimit:4;stroke-dasharray:none;stroke-opacity:1"
       d="m 41.703639,54.094765 c -0.581929,-0.0763 -1.487739,-0.277435 -3.526376,-0.783031 -2.718062,-0.674102 -4.550351,-0.617095 -5.785789,0.180025 -0.164603,0.106201 -0.309263,0.183728 -0.321479,0.172275 -0.03876,-0.03633 0.251051,-0.569765 0.440683,-0.811288 0.394516,-0.502476 1.3224,-1.028882 2.275107,-1.29071 0.623675,-0.171417 1.568553,-0.230964 2.387488,-0.150478 0.297029,0.02921 0.548618,0.04664 0.5591,0.03876 0.01049,-0.0078 0.24774,-1.960711 0.527247,-4.339607 0.549512,-4.676856 0.596981,-5.404994 0.41972,-6.438196 -0.319615,-1.863026 -1.235048,-3.427288 -2.523149,-4.311497 -0.196378,-0.1348 -0.34279,-0.245087 -0.325372,-0.245087 0.01743,0 0.194827,0.06221 0.394248,0.138192 0.981915,0.374242 1.939685,1.078338 2.734925,2.01057 0.241497,0.2831 0.276021,0.305583 0.302526,0.196989 0.01647,-0.06745 0.173445,-1.370258 0.348859,-2.895198 0.175414,-1.524938 0.335664,-2.72798 0.356108,-2.673428 0.02046,0.05456 0.182375,1.359466 0.359835,2.899812 0.17746,1.540339 0.338984,2.794039 0.358942,2.785993 0.01994,-0.0081 0.252266,-0.255238 0.516227,-0.549316 0.723296,-0.805833 1.551005,-1.397722 2.427718,-1.736043 0.373916,-0.144301 0.415532,-0.151801 0.264811,-0.04773 -1.150254,0.794108 -2.042608,2.114584 -2.459936,3.640132 -0.419511,1.533459 -0.401685,2.018293 0.285507,7.766825 l 0.554922,4.64216 0.449129,0.09885 c 1.357557,0.298807 2.778379,0.343492 3.599379,0.113214 0.4383,-0.122933 1.007328,-0.381779 1.31581,-0.598549 0.113136,-0.07951 0.218001,-0.133034 0.233027,-0.118937 0.05896,0.05532 -0.308787,0.657194 -0.564996,0.924494 -0.5565,0.58055 -1.613343,1.094905 -2.686365,1.307383 -0.743973,0.147323 -2.09501,0.181335 -2.917856,0.07344 z M 30.225515,44.627856 c -0.127216,-0.131853 -0.129071,-0.321231 -0.0089,-0.915115 0.290701,-1.437367 1.091749,-2.88338 2.072668,-3.741464 0.923714,-0.808042 2.298785,-1.422871 3.765602,-1.683703 1.051381,-0.186955 1.184137,-0.115819 1.081406,0.579514 -0.168564,1.140887 -0.788582,2.555269 -1.498517,3.418386 -1.053591,1.280934 -2.896674,2.16948 -5.00716,2.413938 -0.250515,0.02904 -0.319816,0.01678 -0.405034,-0.07159 z m 18.948732,0.06059 c -0.856008,-0.104073 -1.995451,-0.430402 -2.755655,-0.789203 -1.725161,-0.814263 -2.790058,-2.103871 -3.419448,-4.141034 -0.0809,-0.261717 -0.174625,-0.662706 -0.20836,-0.891079 -0.102731,-0.695334 0.03,-0.766468 1.081406,-0.579514 1.466817,0.260831 2.841879,0.875661 3.765584,1.683703 0.980928,0.858084 1.781976,2.304097 2.072677,3.741465 0.122526,0.605845 0.119066,0.806711 -0.01596,0.921268 -0.108133,0.09179 -0.16435,0.09767 -0.52031,0.05438 z m -17.67015,-7.789015 c -1.111101,-0.127139 -2.230733,-0.707443 -3.137687,-1.626272 -0.423942,-0.4295 -0.556274,-0.629115 -0.503135,-0.758996 0.08462,-0.206772 1.162704,-0.511006 2.139418,-0.603727 0.592229,-0.05621 0.76662,-0.05235 1.230099,0.02734 1.107814,0.190475 1.902759,0.606001 2.832957,1.480805 0.619428,0.58254 0.765849,0.810471 0.610107,0.949719 -0.04552,0.0407 -0.275241,0.138207 -0.510443,0.216657 -0.862555,0.287703 -1.862566,0.405864 -2.661316,0.31447 z m 15.870002,0.0232 c -0.832695,-0.09546 -1.994116,-0.399702 -2.135405,-0.559387 -0.132254,-0.149466 0.0157,-0.373918 0.622557,-0.944676 0.930199,-0.874803 1.725144,-1.290329 2.832959,-1.480804 0.463478,-0.07969 0.637869,-0.08357 1.230089,-0.02734 0.976723,0.09272 2.054834,0.396954 2.139427,0.603728 0.05202,0.127228 -0.07378,0.321201 -0.474644,0.731505 -0.947037,0.96941 -2.043962,1.528701 -3.244495,1.654267 -0.57507,0.06014 -0.632267,0.06147 -0.970488,0.02268 z m -9.870798,-1.913584 c -1.224462,-0.180885 -2.408279,-0.593862 -3.370704,-1.175874 -1.53657,-0.929211 -2.618591,-2.678013 -2.933142,-4.740669 -0.06572,-0.430686 -0.06251,-0.47544 0.04109,-0.583402 0.09926,-0.103412 0.157327,-0.11303 0.502277,-0.08319 1.036025,0.08961 2.521354,0.609571 3.489657,1.221608 0.480308,0.303593 1.216408,0.991101 1.532252,1.431095 0.580238,0.808313 1.064811,1.947178 1.2482,2.933576 0.125899,0.67719 0.118478,0.840676 -0.043,0.946739 -0.132722,0.0872 -0.180807,0.09236 -0.466695,0.05013 z m 4.455361,-0.04889 c -0.163259,-0.107441 -0.170854,-0.268909 -0.04465,-0.947976 0.18339,-0.986398 0.667962,-2.125263 1.248192,-2.933575 0.315843,-0.439996 1.051953,-1.127502 1.532251,-1.431096 0.968304,-0.612037 2.453641,-1.132001 3.489667,-1.221607 0.34494,-0.02983 0.403004,-0.02022 0.502268,0.08319 0.103634,0.107961 0.10679,0.152715 0.04109,0.583401 -0.132635,0.869798 -0.413105,1.717838 -0.8189,2.47606 -0.913683,1.707226 -2.525682,2.820335 -4.789854,3.307477 -0.784724,0.168835 -1.006913,0.184944 -1.160122,0.08412 z m -2.17736,-3.023242 c -0.214038,-0.213643 -0.647717,-0.853318 -0.834775,-1.231282 -0.760204,-1.536103 -0.648429,-3.088968 0.331796,-4.609863 0.319026,-0.494996 0.529657,-0.729857 0.654567,-0.729857 0.209713,0 0.853478,0.890223 1.164361,1.610126 0.631471,1.4623 0.471975,2.958174 -0.467483,4.384471 -0.33379,0.506769 -0.511423,0.703043 -0.636265,0.703043 -0.0469,0 -0.142424,-0.05699 -0.212201,-0.126638 z"
       id="path919-4-2" />
  </g>
</svg>
