<?xml version="1.0" encoding="UTF-8" standalone="no"?>
<svg
   xmlns:dc="http://purl.org/dc/elements/1.1/"
   xmlns:cc="http://creativecommons.org/ns#"
   xmlns:rdf="http://www.w3.org/1999/02/22-rdf-syntax-ns#"
   xmlns:svg="http://www.w3.org/2000/svg"
   xmlns="http://www.w3.org/2000/svg"
   xmlns:sodipodi="http://sodipodi.sourceforge.net/DTD/sodipodi-0.dtd"
   xmlns:inkscape="http://www.inkscape.org/namespaces/inkscape"
   width="40mm"
   height="40mm"
   viewBox="0 0 40 40"
   version="1.1"
   id="svg8"
   sodipodi:docname="weed.svg"
   inkscape:version="1.0.2 (e86c8708, 2021-01-15)">
  <defs
     id="defs2" />
  <sodipodi:namedview
     id="base"
     pagecolor="#ffffff"
     bordercolor="#666666"
     borderopacity="1.0"
     inkscape:pageopacity="0.0"
     inkscape:pageshadow="2"
     inkscape:zoom="1.24"
     inkscape:cx="66.051849"
     inkscape:cy="167.60983"
     inkscape:document-units="mm"
     inkscape:current-layer="layer1"
     inkscape:document-rotation="0"
     showgrid="false"
     inkscape:window-width="1804"
     inkscape:window-height="955"
     inkscape:window-x="0"
     inkscape:window-y="23"
     inkscape:window-maximized="0" />
  <metadata
     id="metadata5">
    <rdf:RDF>
      <cc:Work
         rdf:about="">
        <dc:format>image/svg+xml</dc:format>
        <dc:type
           rdf:resource="http://purl.org/dc/dcmitype/StillImage" />
        <dc:title></dc:title>
      </cc:Work>
    </rdf:RDF>
  </metadata>
  <g
     inkscape:label="Layer 1"
     inkscape:groupmode="layer"
     id="layer1"
     transform="translate(-20,-20)">
    <circle
       style="fill:#ffffff;fill-opacity:1;stroke-width:0.264583"
       id="path839"
       cx="40"
       cy="40"
       r="20" />
    <circle
       style="fill:#f05995;fill-opacity:1;stroke-width:0.238126"
       id="path839-9"
       cx="40"
       cy="40"
       r="18" />
    <path
       style="fill:#ffffff;fill-opacity:1;stroke-width:0.141419"
       d="m 32.477698,51.387159 c 0.106333,-2.889918 0.78171,-5.519132 2.137191,-8.320009 l 0.4638,-0.958362 -0.359711,-0.663993 c -0.311112,-0.574278 -0.352454,-0.796492 -0.305997,-1.644744 0.06858,-1.252002 0.524617,-1.992952 1.551613,-2.520944 0.934962,-0.480675 1.768018,-0.47834 2.713228,0.0075 0.821489,0.422338 1.22859,0.934301 1.50998,1.898921 0.309747,1.061823 0.05505,2.029775 -0.763443,2.901406 -0.746619,0.795099 -1.522645,1.084168 -2.537614,0.945261 l -0.642981,-0.088 -0.632122,1.402458 c -1.185956,2.631208 -1.618601,4.404746 -1.734988,7.11222 l -0.08491,1.975073 h -0.694685 -0.694681 z m 4.653378,-1.780558 c -0.05265,-0.05431 -0.09572,-0.217261 -0.09572,-0.362102 0,-0.31811 -0.317573,-0.345414 -0.556916,-0.04788 -0.09533,0.118504 -0.295319,0.215463 -0.444423,0.215463 -0.506297,0 -0.245797,-0.614725 0.395663,-0.933676 0.649749,-0.323068 0.744905,-0.573074 0.744905,-1.957119 0,-0.466833 0.06221,-0.843896 0.139229,-0.843896 0.07889,0 0.140052,0.420266 0.141133,0.969583 0.0027,1.326725 0.07314,1.501218 0.740329,1.831432 0.643872,0.318675 0.906253,0.933676 0.398337,0.933676 -0.149103,0 -0.349091,-0.09695 -0.444423,-0.215463 -0.250303,-0.311158 -0.530526,-0.264706 -0.582039,0.09648 -0.04621,0.323956 -0.269993,0.484838 -0.436072,0.313498 z m 3.175075,-0.914556 c -0.0851,-0.142064 0.09862,-0.607064 0.495126,-1.253134 0.180572,-0.294225 0.141761,-0.436394 -0.460777,-1.687791 -0.361875,-0.751572 -0.635104,-1.3665 -0.60717,-1.3665 0.02794,0 0.419103,0.578083 0.86927,1.284628 l 0.818484,1.284624 0.570858,-0.08024 c 0.624637,-0.0878 1.169511,0.126841 1.169511,0.460703 0,0.153617 -0.169121,0.210409 -0.626535,0.210409 -0.588375,0 -0.80274,0.157973 -0.4873,0.359108 0.206112,0.131423 0.16896,0.356348 -0.0748,0.452855 -0.117715,0.0466 -0.33248,-0.02587 -0.477265,-0.161042 -0.251374,-0.234704 -0.273252,-0.225784 -0.485692,0.198038 -0.221368,0.441647 -0.537557,0.575697 -0.703706,0.298347 z M 30.059767,45.928771 c -0.0078,-0.09875 -0.0025,-0.39479 0.01162,-0.657859 0.0239,-0.444359 0.005,-0.46683 -0.26723,-0.316554 -0.530531,0.292929 -0.75689,-0.113657 -0.332579,-0.597373 0.221069,-0.252023 0.210302,-0.274594 -0.208844,-0.437815 -0.268528,-0.104573 -0.441933,-0.272466 -0.441933,-0.42789 0,-0.367374 0.553425,-0.327948 1.128056,0.08037 l 0.473085,0.336161 1.392296,-0.697061 c 0.765763,-0.383381 1.239037,-0.583129 1.051725,-0.44389 -0.187314,0.139243 -0.767288,0.562198 -1.288832,0.939903 -0.942055,0.682238 -0.947701,0.690338 -0.862859,1.237725 0.04883,0.315041 0.01733,0.682209 -0.07355,0.857414 -0.17261,0.332747 -0.558165,0.416943 -0.580954,0.126874 z m 13.854777,-0.32414 c -0.04817,-0.198025 -0.05045,-0.569701 -0.0051,-0.825937 0.0805,-0.454445 0.05179,-0.486649 -1.168131,-1.310316 -0.687854,-0.464434 -1.250648,-0.869017 -1.250648,-0.89907 0,-0.03005 0.620781,0.266746 1.379514,0.659565 1.247743,0.64599 1.397362,0.692011 1.566332,0.481804 0.305579,-0.380154 1.083166,-0.661411 1.304543,-0.47186 0.212849,0.182246 0.123368,0.571236 -0.131402,0.571236 -0.09204,0 -0.288955,0.09297 -0.437601,0.206581 -0.265334,0.202812 -0.26543,0.210276 -0.0054,0.409136 0.341831,0.261356 0.159669,0.581998 -0.281243,0.495043 -0.303195,-0.0598 -0.331758,-0.01769 -0.331758,0.489221 0,0.457106 -0.04851,0.554648 -0.275808,0.554648 -0.178269,0 -0.306783,-0.127328 -0.3634,-0.360051 z M 28.172289,41.5763 c -0.04691,-0.12611 0.04561,-0.363856 0.213214,-0.547916 0.392439,-0.430972 0.374103,-0.665731 -0.05201,-0.665731 -0.255253,0 -0.348074,-0.07661 -0.348074,-0.287287 0,-0.210674 0.09283,-0.28728 0.348074,-0.28728 0.39931,0 0.43232,-0.117467 0.143658,-0.511205 -0.318148,-0.43396 -0.271444,-0.81025 0.09379,-0.755654 0.201216,0.0301 0.403209,0.252215 0.585991,0.644424 0.313059,0.671755 0.548091,0.766075 1.908946,0.766075 0.452496,0 0.817973,0.06418 0.817973,0.14364 0,0.07946 -0.365477,0.143642 -0.817973,0.143642 -1.259063,0 -1.651982,0.119019 -1.752144,0.530744 -0.09416,0.387069 -0.667644,1.049317 -0.908664,1.049317 -0.08245,0 -0.187214,-0.100253 -0.232788,-0.222769 z m 19.100802,-3.732482 -0.450884,-0.507848 -1.355912,0.30308 c -0.745753,0.166694 -1.378215,0.280071 -1.405469,0.25195 -0.02725,-0.02812 0.573723,-0.274457 1.335515,-0.547413 1.292914,-0.463258 1.385084,-0.522076 1.385084,-0.883885 0,-0.544531 0.233586,-1.115767 0.499266,-1.220947 0.347005,-0.137378 0.466388,0.227098 0.24966,0.762228 l -0.195745,0.483338 h 0.419554 c 0.318078,0 0.419558,0.06544 0.419558,0.270531 0,0.157889 -0.130434,0.308335 -0.313267,0.361323 -0.312909,0.09069 -0.312813,0.0912 0.08273,0.452437 0.413304,0.377439 0.418492,0.783054 0.01003,0.783054 -0.126087,0 -0.43214,-0.228531 -0.680123,-0.507848 z m -15.562368,-0.936842 -1.356587,-0.711798 -0.284921,0.293949 c -0.412179,0.425241 -0.959694,0.613719 -1.195729,0.41162 -0.298329,-0.255437 -0.231975,-0.395298 0.295395,-0.622631 0.546777,-0.235697 0.589175,-0.33166 0.257188,-0.582108 -0.321044,-0.242192 -0.101887,-0.54947 0.314919,-0.441544 0.309668,0.08018 0.332885,0.04594 0.332885,-0.491107 0,-0.470514 0.04871,-0.577304 0.263365,-0.577304 0.315478,0 0.47735,0.531803 0.363328,1.193646 -0.07655,0.444362 -0.04087,0.483799 1.178707,1.302658 0.691707,0.464434 1.25765,0.868426 1.25765,0.897762 0,0.07758 0.04549,0.09905 -1.4262,-0.673143 z m 2.314301,-2.433958 -0.818485,-1.293093 -0.575804,0.08598 c -0.629486,0.094 -1.164566,-0.112532 -1.164566,-0.449508 0,-0.153854 0.169719,-0.210408 0.631432,-0.210408 0.590441,0 0.621657,-0.01884 0.480865,-0.290253 -0.271533,-0.523445 0.255542,-0.829522 0.551435,-0.320225 0.137493,0.236651 0.158286,0.235043 0.354997,-0.02746 0.11492,-0.153354 0.208946,-0.363431 0.208946,-0.466836 0,-0.103407 0.125307,-0.188008 0.278459,-0.188008 0.187888,0 0.278459,0.09577 0.278459,0.294416 0,0.364698 -0.356692,1.097084 -0.570042,1.170454 -0.09742,0.0335 0.115914,0.617975 0.555259,1.521218 0.392405,0.806744 0.689631,1.466809 0.660502,1.466809 -0.02913,0 -0.421291,-0.581894 -0.871457,-1.293095 z m 3.148028,-0.7538 c -0.0027,-1.406661 -0.116805,-1.765928 -0.619582,-1.953495 -0.249049,-0.09291 -0.567251,-0.299385 -0.70712,-0.458832 -0.226331,-0.258017 -0.23127,-0.313657 -0.04489,-0.505915 0.186353,-0.192258 0.248994,-0.183868 0.569577,0.07629 0.480348,0.389817 0.664343,0.368399 0.664343,-0.07734 0,-0.471481 0.465772,-0.429519 0.531796,0.0479 0.05113,0.369747 0.32924,0.420522 0.582043,0.106264 0.09533,-0.118504 0.295314,-0.215463 0.444419,-0.215463 0.499459,0 0.242997,0.597524 -0.396936,0.924809 -0.667601,0.341436 -0.73914,0.518932 -0.741731,1.840296 -9.19e-4,0.549319 -0.06226,0.969583 -0.141132,0.969583 -0.07657,0 -0.139918,-0.339355 -0.140759,-0.75412 z m 3.621792,-1.578161 c -1.38e-4,-0.0582 0.289014,-0.706687 0.642613,-1.441065 l 0.642897,-1.335233 -0.370421,-0.56315 c -0.203736,-0.309731 -0.352069,-0.694813 -0.329635,-0.855737 0.0586,-0.420302 0.482466,-0.457087 0.60285,-0.05231 0.188011,0.632171 0.370407,0.746459 0.628321,0.3937 0.315079,-0.430944 0.60452,-0.235919 0.494231,0.333011 -0.08268,0.42646 -0.0771,0.431202 0.410937,0.349497 0.366815,-0.06141 0.515644,-0.02665 0.575575,0.134474 0.131618,0.353875 -0.191982,0.54518 -0.932598,0.551328 l -0.695245,0.0057 -0.834613,1.292776 c -0.45904,0.711027 -0.834747,1.245153 -0.834912,1.186945 z m 6.885936,-1.105714 c 0.03731,-0.06227 0.534681,-0.4284 1.105283,-0.813624 l 1.037463,-0.700408 -0.07072,-0.648197 c -0.04771,-0.437206 -0.0058,-0.737163 0.128582,-0.921513 0.283321,-0.388537 0.520004,-0.16384 0.520004,0.493666 0,0.548389 0.01048,0.560337 0.417688,0.476313 0.35371,-0.07298 0.417693,-0.04178 0.417693,0.203687 0,0.159429 -0.09795,0.328649 -0.217669,0.376044 -0.27709,0.109699 -0.13322,0.354189 0.310937,0.528409 0.223252,0.08757 0.326837,0.223607 0.294036,0.386154 -0.06692,0.331618 -0.60801,0.270079 -1.13693,-0.129305 l -0.401549,-0.303209 -1.236324,0.5826 c -0.679972,0.320432 -1.205798,0.531653 -1.168494,0.469383 z"
       id="path953" />
  </g>
</svg>
